<?xml version="1.0" encoding="UTF-8" standalone="no"?>
<!-- Created with Inkscape (http://www.inkscape.org/) -->

<svg
   width="100mm"
   height="80mm"
   viewBox="0 0 100 80"
   version="1.1"
   id="svg1"
   xml:space="preserve"
   inkscape:version="1.4.2 (f4327f4, 2025-05-13)"
   sodipodi:docname="icon.svg"
   xmlns:inkscape="http://www.inkscape.org/namespaces/inkscape"
   xmlns:sodipodi="http://sodipodi.sourceforge.net/DTD/sodipodi-0.dtd"
   xmlns="http://www.w3.org/2000/svg"
   xmlns:svg="http://www.w3.org/2000/svg"><sodipodi:namedview
     id="namedview1"
     pagecolor="#ffffff"
     bordercolor="#000000"
     borderopacity="0.25"
     inkscape:showpageshadow="2"
     inkscape:pageopacity="0.0"
     inkscape:pagecheckerboard="0"
     inkscape:deskcolor="#d1d1d1"
     inkscape:document-units="mm"
     inkscape:zoom="0.65477694"
     inkscape:cx="316.1382"
     inkscape:cy="382.57304"
     inkscape:window-width="1920"
     inkscape:window-height="974"
     inkscape:window-x="-11"
     inkscape:window-y="-11"
     inkscape:window-maximized="1"
     inkscape:current-layer="svg1" /><defs
     id="defs1" /><g
     id="g14"
     transform="matrix(0.77029263,0,0,0.62517568,-31.297764,-52.776798)"><g
       id="g3"><rect
         style="fill:#0096c7;fill-opacity:1;stroke:#000000;stroke-width:3.79283;stroke-dasharray:none"
         id="rect1"
         width="97.186768"
         height="51.322762"
         x="69.60051"
         y="87.179947"
         rx="0.96980917"
         ry="0.92708665"
         transform="skewY(-7.385205e-4)" /><text
         xml:space="preserve"
         style="font-style:normal;font-variant:normal;font-weight:normal;font-stretch:normal;font-size:25.4px;font-family:'DejaVu Sans Mono';-inkscape-font-specification:'DejaVu Sans Mono';text-align:start;writing-mode:lr-tb;direction:ltr;text-anchor:start;fill:#000000;fill-opacity:1;stroke:#000000;stroke-width:3;stroke-dasharray:none"
         x="86.205353"
         y="117.38572"
         id="text2"><tspan
           sodipodi:role="line"
           id="tspan2"
           style="font-style:normal;font-variant:normal;font-weight:normal;font-stretch:normal;font-size:25.4px;font-family:'HP Simplified Jpan';-inkscape-font-specification:'HP Simplified Jpan';fill:#000000;fill-opacity:1;stroke-width:3;stroke-dasharray:none"
           x="86.205353"
           y="117.38572">A  B  C</tspan></text><rect
         style="fill:#ade8f4;fill-opacity:1;stroke:#000000;stroke-width:4.706;stroke-miterlimit:2.5;stroke-dasharray:none"
         id="rect3"
         width="20.922379"
         height="11.830542"
         x="138.64494"
         y="131.5735"
         rx="5.8838191"
         ry="10.456288" /><rect
         style="fill:#03045e;fill-opacity:1;stroke:#000000;stroke-width:3.30634;stroke-dasharray:none"
         id="rect2"
         width="97.471214"
         height="13.01815"
         x="68.953163"
         y="138.85928"
         rx="0.96666986"
         ry="0.63548118" /></g><path
       style="fill:#ade8f4;fill-opacity:1;stroke:#000000;stroke-width:3;stroke-linecap:round;stroke-linejoin:round;stroke-miterlimit:2.5;stroke-dasharray:none;stroke-opacity:1"
       d="m 137.18571,210.52653 30.10408,-0.20204 c 0,0 1.28057,-8.36285 -0.20204,-12.12245 -1.03208,-2.61715 -3.03842,-5.2352 -5.65714,-6.26327 -6.41913,-2.52005 -14.65885,-1.66897 -20.60816,1.81837 -1.54706,0.90685 -2.46009,2.74483 -3.03062,4.4449 -1.3086,3.89941 -0.60612,12.32449 -0.60612,12.32449 z"
       id="path12"
       sodipodi:nodetypes="ccssssc" /><path
       style="fill:#ade8f4;fill-opacity:1;stroke:#000000;stroke-width:3;stroke-linecap:round;stroke-linejoin:round;stroke-miterlimit:2.5;stroke-dasharray:none;stroke-opacity:1"
       d="m 98.797958,209.31428 h 29.295922 c 0,0 1.50449,-7.51403 0.20204,-10.9102 -0.98961,-2.58044 -3.10424,-5.00262 -5.65715,-6.06123 -5.53988,-2.2972 -12.41944,-1.6365 -17.98163,0.60613 -2.52098,1.01644 -4.978398,2.96191 -6.061223,5.4551 -1.448992,3.33628 0.202041,10.9102 0.202041,10.9102 z"
       id="path10"
       sodipodi:nodetypes="ccssssc" /><path
       style="fill:#caf0f8;fill-opacity:1;stroke:#000000;stroke-width:3;stroke-miterlimit:2.5;stroke-dasharray:none;stroke-opacity:1"
       d="m 83.038769,162.03674 c -3.69459,-4.65839 -25.941049,-6.02731 -35.155096,-1.41429 -2.192085,1.09747 -4.444897,5.85918 -4.444897,5.85918 v 43.43877 l 34.548983,-0.80816 -0.40409,-34.34694 c 0,0 5.55192,9.46723 9.09184,7.67755 13.29567,-6.7219 25.457141,-29.90204 25.457141,-29.90204 l -7.27347,-6.86939 -17.173471,22.22449 z"
       id="path7"
       sodipodi:nodetypes="ssccccscccs" /><rect
       style="fill:#eec4a2;fill-opacity:1;stroke:#000000;stroke-width:1.6;stroke-miterlimit:2.5;stroke-dasharray:none;stroke-opacity:1"
       id="rect5"
       width="10.708163"
       height="11.718368"
       x="60.006123"
       y="148.5"
       rx="3"
       ry="3" /><rect
       style="fill:#eec4a2;fill-opacity:1;stroke:#000000;stroke-width:4;stroke-miterlimit:2.5;stroke-dasharray:none"
       id="rect4"
       width="20.281992"
       height="29.979952"
       x="54.411041"
       y="120.47839"
       rx="7.9513359"
       ry="8.4791784" /><path
       style="fill:none;fill-opacity:0.933333;stroke:#000000;stroke-width:4;stroke-miterlimit:2.5;stroke-dasharray:none"
       d="m 53.944897,136.57959 c 0,0 8.197167,-10.21597 9.293877,-7.47551 1.936829,4.83976 11.516328,8.88979 11.516328,8.88979"
       id="path4"
       sodipodi:nodetypes="csc" /><path
       style="fill:#ffffff;fill-opacity:0.933333;stroke:none;stroke-width:5.77224;stroke-miterlimit:2.5;stroke-dasharray:none"
       d="m 266.59117,504.06218 c -8.39125,-5.28809 -16.42637,-12.64258 -19.2192,-17.5912 -3.27192,-5.79753 -5.34079,-7.45443 -9.84871,-7.88759 -5.24638,-0.50411 -10.53129,2.17598 -17.94668,9.10113 l -5.76331,5.3823 v -4.90036 c 0,-10.18005 4.53028,-18.23502 12.56751,-22.34541 4.49458,-2.29861 4.53893,-2.30442 17.59544,-2.30442 13.0565,0 13.10086,0.006 17.59543,2.30442 5.30855,2.71489 9.72379,7.99712 11.43405,13.67927 1.20165,3.99235 1.686,28.73206 0.56075,28.64235 -0.315,-0.0251 -3.45387,-1.86133 -6.97528,-4.08049 z"
       id="path5"
       transform="scale(0.26458333)" /><ellipse
       style="fill:#eec4a2;fill-opacity:1;stroke:#000000;stroke-width:3;stroke-miterlimit:2.5;stroke-dasharray:none;stroke-opacity:1"
       id="path6"
       cx="111.32449"
       cy="143.75203"
       rx="6.2683325"
       ry="6.5713935" /><path
       style="fill:#caf0f8;fill-opacity:1;stroke:#000000;stroke-width:3;stroke-linecap:round;stroke-miterlimit:2.5;stroke-dasharray:none;stroke-opacity:1"
       d="m 52.12653,175.16939 v 33.94285"
       id="path8" /><path
       style="fill:#5dd2ea;fill-opacity:1;stroke:#000000;stroke-width:2.75821;stroke-linecap:round;stroke-linejoin:round;stroke-miterlimit:2.5;stroke-dasharray:none;stroke-opacity:1"
       d="m 56.248492,159.06031 2.378949,10.37078 11.162758,-10.18222 -9.332798,0.37711 9.881784,9.42799 4.940893,-10.37079"
       id="path9" /><path
       style="fill:#03045e;fill-opacity:1;stroke:#000000;stroke-width:3;stroke-linecap:round;stroke-linejoin:round;stroke-miterlimit:2.5;stroke-dasharray:none;stroke-opacity:1"
       d="m 122.63877,194.36326 -17.57755,-0.40408 c 0,0 -2.63901,-3.41216 -3.03061,-5.4551 -0.79259,-4.13485 -0.447,-8.85667 1.61633,-12.52653 1.47938,-2.63125 4.20165,-4.72099 7.07143,-5.65714 4.35803,-1.42163 13.73877,0.60612 13.73877,0.60612 l -0.20204,18.99183 z"
       id="path11"
       sodipodi:nodetypes="ccsssccc" /><path
       style="fill:#03045e;fill-opacity:1;stroke:#000000;stroke-width:3;stroke-linecap:round;stroke-linejoin:round;stroke-miterlimit:2.5;stroke-dasharray:none;stroke-opacity:1"
       d="m 143.65102,197.79796 16.97143,-0.40408 c 0,0 3.73945,-14.23926 0.60612,-20.20409 -1.78958,-3.40678 -5.86151,-6.564 -9.69796,-6.26326 -1.71177,0.13418 -5.5062,1.41833 -7.27347,3.43469 -1.16519,1.32942 -1.61632,5.05102 -1.61632,5.05102 -1.87065,5.8458 1.0102,18.38572 1.0102,18.38572 z"
       id="path13"
       sodipodi:nodetypes="ccssssc" /><path
       style="fill:#03045e;fill-opacity:1;stroke:#000000;stroke-width:3;stroke-linecap:round;stroke-linejoin:round;stroke-miterlimit:2.5;stroke-dasharray:none;stroke-opacity:1"
       d="m 116.57755,138.19592 c 1.41429,-1.01021 14.95102,-18.18368 14.95102,-18.18368"
       id="path14" /></g></svg>
